<?xml version="1.0" standalone="no"?>
<!DOCTYPE svg PUBLIC "-//W3C//DTD SVG 20010904//EN"
 "http://www.w3.org/TR/2001/REC-SVG-20010904/DTD/svg10.dtd">
<svg version="1.0" xmlns="http://www.w3.org/2000/svg"
 width="1024.000000pt" height="1024.000000pt" viewBox="0 0 1024.000000 1024.000000"
 preserveAspectRatio="xMidYMid meet">

<defs>
  <linearGradient id="colorfulGradient" x1="0%" y1="0%" x2="100%" y2="100%">
    <stop offset="0%" style="stop-color:#3B82F6;stop-opacity:1" /> <!-- blue-500 -->
    <stop offset="33%" style="stop-color:#8B5CF6;stop-opacity:1" /> <!-- violet-500 -->
    <stop offset="67%" style="stop-color:#EC4899;stop-opacity:1" /> <!-- pink-500 -->
    <stop offset="100%" style="stop-color:#10B981;stop-opacity:1" /> <!-- emerald-500 -->
  </linearGradient>
</defs>

<g transform="translate(0.000000,1024.000000) scale(0.100000,-0.100000)"
fill="url(#colorfulGradient)" stroke="none">
<path d="M6865 8270 c-108 -15 -244 -70 -325 -132 -14 -10 -181 -175 -372
-365 l-346 -347 -89 27 c-114 34 -287 71 -438 94 -96 14 -182 18 -430 18 -293
0 -318 -2 -465 -28 -755 -133 -1393 -532 -1817 -1137 -352 -502 -524 -1074
-506 -1685 17 -587 200 -1115 546 -1574 286 -380 595 -641 992 -836 368 -182
713 -271 1132 -295 917 -51 1784 346 2354 1080 315 405 485 805 566 1330 22
143 25 585 5 725 -42 296 -121 575 -232 818 -34 76 -61 140 -59 142 2 2 130
131 285 287 154 156 295 304 313 331 185 272 175 612 -24 857 -60 74 -455 465
-546 540 -68 56 -176 112 -264 134 -77 20 -204 27 -280 16z m220 -438 c36 -17
119 -93 297 -271 282 -281 298 -304 298 -426 0 -108 -24 -143 -239 -361 l-184
-186 -296 294 c-163 161 -353 349 -424 418 l-127 124 187 189 c104 103 203
198 222 209 44 28 125 46 176 40 22 -3 63 -16 90 -30z m-2142 -279 c-7 -2 -21
-2 -30 0 -10 3 -4 5 12 5 17 0 24 -2 18 -5z m-358 -13 c-3 -5 -12 -10 -18 -10
-7 0 -6 4 3 10 19 12 23 12 15 0z m558 3 c-7 -2 -19 -2 -25 0 -7 3 -2 5 12 5
14 0 19 -2 13 -5z m174 -19 c-3 -3 -12 -4 -19 -1 -8 3 -5 6 6 6 11 1 17 -2 13
-5z m-82 -390 c95 -13 246 -42 245 -47 0 -1 -410 -413 -910 -915 -500 -502
-916 -925 -924 -940 -12 -24 -71 -213 -298 -957 -39 -126 -90 -295 -115 -375
-66 -213 -66 -211 -60 -266 12 -118 90 -197 205 -210 36 -5 113 9 317 55 149
33 500 112 782 175 282 63 528 122 547 131 48 23 1880 1851 1870 1866 -5 8 -3
9 5 4 8 -5 39 20 88 70 41 42 75 76 77 74 2 -2 21 -54 44 -115 121 -327 170
-619 159 -954 -12 -352 -86 -656 -238 -969 -187 -388 -472 -711 -838 -950
-628 -411 -1418 -502 -2126 -247 -226 82 -511 247 -704 408 -565 472 -865
1113 -864 1848 1 259 27 440 98 675 178 586 622 1110 1186 1398 289 148 568
227 899 256 134 12 413 4 555 -15z m2862 -6 c-3 -7 -5 -2 -5 12 0 14 2 19 5
13 2 -7 2 -19 0 -25z m-1564 -426 l418 -418 -208 -206 c-115 -114 -555 -552
-980 -975 l-772 -768 -422 417 -422 417 974 974 c536 536 979 976 984 976 6 1
198 -187 428 -417z m947 84 c0 -2 -8 -10 -17 -17 -16 -13 -17 -12 -4 4 13 16
21 21 21 13z m-560 -560 c0 -2 -8 -10 -17 -17 -16 -13 -17 -12 -4 4 13 16 21
21 21 13z m377 -1378 c-3 -8 -6 -5 -6 6 -1 11 2 17 5 13 3 -3 4 -12 1 -19z m0
-55 c-3 -10 -5 -4 -5 12 0 17 2 24 5 18 2 -7 2 -21 0 -30z m-3012 -352 c184
-184 333 -336 332 -336 -1 -1 -202 -46 -447 -99 -245 -54 -457 -102 -472 -106
-27 -9 -45 1 -34 18 3 5 44 132 91 283 134 427 163 522 171 552 3 15 10 27 15
25 5 -2 159 -153 344 -337z m-2188 237 c-3 -8 -6 -5 -6 6 -1 11 2 17 5 13 3
-3 4 -12 1 -19z m5120 -480 c-3 -8 -6 -5 -6 6 -1 11 2 17 5 13 3 -3 4 -12 1
-19z m-5040 -90 c-3 -8 -6 -5 -6 6 -1 11 2 17 5 13 3 -3 4 -12 1 -19z m1244
-1205 c13 -16 12 -17 -3 -4 -17 13 -22 21 -14 21 2 0 10 -8 17 -17z"/>
</g>
</svg> 